<svg width="16" height="17" viewBox="0 0 16 17" fill="none" xmlns="http://www.w3.org/2000/svg">
<g clip-path="url(#clip0_4_111)">
<path d="M5.57374 1.02625C3.97509 1.58084 2.59642 2.63346 1.64023 4.0295C0.684041 5.42555 0.200732 7.09143 0.261296 8.78246C0.32186 10.4735 0.923104 12.1005 1.97671 13.4246C3.03032 14.7487 4.48077 15.7 6.11499 16.1388C7.4399 16.4806 8.828 16.4956 10.16 16.1825C11.3666 15.9115 12.4822 15.3317 13.3975 14.5C14.3501 13.6079 15.0415 12.4731 15.3975 11.2175C15.7844 9.85209 15.8532 8.41617 15.5987 7.02H8.15874V10.1063H12.4675C12.3814 10.5985 12.1968 11.0683 11.9249 11.4875C11.653 11.9068 11.2993 12.2669 10.885 12.5463C10.3588 12.8943 9.76574 13.1285 9.14374 13.2338C8.51992 13.3497 7.88006 13.3497 7.25624 13.2338C6.62398 13.103 6.02587 12.8421 5.49999 12.4675C4.65518 11.8695 4.02084 11.0199 3.68749 10.04C3.34851 9.04174 3.34851 7.95951 3.68749 6.96125C3.92478 6.26152 4.31703 5.62442 4.83499 5.0975C5.42773 4.48344 6.17816 4.0445 7.00394 3.82885C7.82972 3.6132 8.69894 3.62916 9.51624 3.875C10.1547 4.07099 10.7386 4.41342 11.2212 4.875C11.7071 4.39167 12.1921 3.90708 12.6762 3.42125C12.9262 3.16 13.1987 2.91125 13.445 2.64375C12.7082 1.9581 11.8433 1.42457 10.9 1.07375C9.18212 0.449989 7.30246 0.433226 5.57374 1.02625Z" fill="white"/>
<path d="M5.57375 1.02625C7.30233 0.43282 9.18199 0.449142 10.9 1.0725C11.8435 1.4257 12.708 1.9618 13.4438 2.65C13.1938 2.9175 12.93 3.1675 12.675 3.4275C12.19 3.91167 11.7054 4.39417 11.2213 4.875C10.7386 4.41342 10.1547 4.07099 9.51625 3.875C8.69922 3.6283 7.83002 3.61141 7.00403 3.82618C6.17803 4.04095 5.42714 4.47908 4.83375 5.0925C4.31579 5.61942 3.92353 6.25652 3.68625 6.95625L1.095 4.95C2.02251 3.1107 3.62844 1.70378 5.57375 1.02625Z" fill="#E33629"/>
<path d="M0.407499 6.9375C0.546775 6.24724 0.778003 5.57878 1.095 4.95L3.68625 6.96125C3.34727 7.95951 3.34727 9.04174 3.68625 10.04C2.82292 10.7067 1.95917 11.3767 1.095 12.05C0.301437 10.4704 0.0594147 8.67063 0.407499 6.9375Z" fill="#F8BD00"/>
<path d="M8.15876 7.01875H15.5988C15.8533 8.41492 15.7844 9.85084 15.3975 11.2162C15.0416 12.4718 14.3501 13.6067 13.3975 14.4987C12.5613 13.8462 11.7213 13.1987 10.885 12.5462C11.2996 12.2666 11.6535 11.9061 11.9254 11.4864C12.1973 11.0667 12.3817 10.5964 12.4675 10.1037H8.15876C8.15751 9.07625 8.15876 8.0475 8.15876 7.01875Z" fill="#587DBD"/>
<path d="M1.09375 12.05C1.95792 11.3833 2.82167 10.7133 3.685 10.04C4.01901 11.0202 4.65426 11.8699 5.5 12.4675C6.02751 12.8403 6.62691 13.0992 7.26 13.2275C7.88382 13.3435 8.52368 13.3435 9.1475 13.2275C9.76949 13.1222 10.3626 12.888 10.8888 12.54C11.725 13.1925 12.565 13.84 13.4012 14.4925C12.4861 15.3247 11.3705 15.9049 10.1637 16.1763C8.83176 16.4894 7.44365 16.4744 6.11875 16.1325C5.07088 15.8527 4.09209 15.3595 3.24375 14.6838C2.34583 13.9709 1.61244 13.0725 1.09375 12.05Z" fill="#319F43"/>
</g>
<defs>
<clipPath id="clip0_4_111">
<rect width="16" height="16" fill="white" transform="translate(0 0.5)"/>
</clipPath>
</defs>
</svg>
