<svg width="22" height="26" viewBox="0 0 22 26" fill="none" xmlns="http://www.w3.org/2000/svg">
<path d="M16.0255 16.5294C16.0255 20.9547 12.4381 24.5422 8.01274 24.5422C3.58743 24.5422 0 20.9547 0 16.5294C0 12.1041 3.58743 8.51669 8.01274 8.51669C12.4381 8.51669 16.0255 12.1041 16.0255 16.5294Z" fill="#6784F6"/>
<path d="M17.7425 6.94713C17.7425 10.5822 14.7957 13.529 11.1606 13.529C7.52552 13.529 4.5787 10.5822 4.5787 6.94713C4.5787 3.31205 7.52552 0.365234 11.1606 0.365234C14.7957 0.365234 17.7425 3.31205 17.7425 6.94713Z" fill="#DD886F"/>
<path d="M21.3673 17.0367C21.3673 19.8289 19.1038 22.0924 16.3116 22.0924C13.5195 22.0924 11.256 19.8289 11.256 17.0367C11.256 14.2445 13.5195 11.981 16.3116 11.981C19.1038 11.981 21.3673 14.2445 21.3673 17.0367Z" fill="#EFC22F"/>
</svg>
