<svg width="96" height="96" viewBox="0 0 96 96" fill="none" xmlns="http://www.w3.org/2000/svg">
<rect width="96" height="96" rx="48" fill="#ECEFFB"/>
<path d="M44 56.5925H52C53.1 56.5925 54 55.6925 54 54.5925V44.5925H57.18C58.96 44.5925 59.86 42.4325 58.6 41.1725L49.42 31.9925C49.235 31.8071 49.0152 31.66 48.7733 31.5596C48.5313 31.4593 48.2719 31.4076 48.01 31.4076C47.7481 31.4076 47.4887 31.4593 47.2468 31.5596C47.0048 31.66 46.785 31.8071 46.6 31.9925L37.42 41.1725C36.16 42.4325 37.04 44.5925 38.82 44.5925H42V54.5925C42 55.6925 42.9 56.5925 44 56.5925ZM36 60.5925H60C61.1 60.5925 62 61.4925 62 62.5925C62 63.6925 61.1 64.5925 60 64.5925H36C34.9 64.5925 34 63.6925 34 62.5925C34 61.4925 34.9 60.5925 36 60.5925Z" fill="#6784F6"/>
</svg>
